<svg width="85" height="14" viewBox="0 0 85 14" fill="none" xmlns="http://www.w3.org/2000/svg">
<path d="M1.34867 4.2H6.14867L7.39667 5.52V7.92L6.18467 9.192L7.30067 11.04H7.93667V12H5.80067V11.04H6.13667L5.05667 9.24H3.29267V11.04H4.01267V12H1.34867V11.04H2.18867V5.16H1.34867V4.2ZM3.29267 5.232V8.208H5.66867L6.36467 7.5V5.94L5.68067 5.232H3.29267ZM10.9873 12L9.7393 10.68V5.52L10.9873 4.2H14.3713L15.6193 5.52V10.68L14.3713 12H10.9873ZM11.4553 10.968H13.8913L14.5153 10.332V5.868L13.9033 5.232H11.4673L10.8433 5.868V10.332L11.4553 10.968ZM22.104 9.168H23.064V10.68L21.816 12H18.792L17.544 10.68V5.52L18.792 4.2H21.816L23.064 5.52V7.032H22.104V6.012L21.348 5.232H19.272L18.648 5.868V10.332L19.26 10.968H21.336L22.104 10.188V9.168ZM31.5673 12H29.0233V11.04H29.6353L27.8713 8.58H26.6833V11.04H27.5233V12H24.7393V11.04H25.5793V5.16H24.7393V4.2H27.5233V5.16H26.6833V7.62H27.7393L29.5153 5.16H28.9033V4.2H31.4473V5.16H30.7513L28.6993 8.016L30.8713 11.04H31.5673V12ZM32.0466 5.16V4.2H34.5906V5.16H33.7506L35.4426 10.86L37.1466 5.16H36.6666V4.2H39.2586V5.16H38.7786L40.4706 10.86L42.1746 5.16H41.3346V4.2H43.8786V5.16H43.2786L41.2386 12H39.7626L37.9626 5.964L36.1626 12H34.6866L32.6466 5.16H32.0466ZM48.4393 12V11.04H49.2313L48.7153 9.552H45.7153L45.1993 11.04H46.0033V12H43.4593V11.04H44.0953L46.1233 5.16H45.6193V4.2H48.8233V5.16H48.3073L50.3353 11.04H50.9833V12H48.4393ZM47.2153 5.196L46.0393 8.592H48.3913L47.2153 5.196ZM55.6023 12H52.3383V11.04H53.4183V9.552L51.3303 5.16H50.5623V4.2H53.1063V5.16H52.3863L53.9583 8.484L55.5423 5.16H54.8223V4.2H57.3663V5.16H56.5983L54.5223 9.528V11.04H55.6023V12Z" fill="white" style="fill:white;fill-opacity:1;"/>
<path d="M61.0601 12L59.8756 10.8155V8.36025L60.3931 7.86575L59.8756 7.354V5.1345L61.0601 3.95H64.0386L65.2231 5.1345V7.354L64.7056 7.87725L65.2231 8.36025V10.8155L64.0386 12H61.0601ZM61.6466 10.8097L61.0658 10.229V8.82025L61.6581 8.23375H63.4521L64.0501 8.82025V10.229L63.4636 10.8097H61.6466ZM61.2901 11.5457H63.8258L64.7861 10.5855V8.5155L64.1191 7.86575L64.7861 7.19875V5.35875L63.8258 4.3985H61.2901L60.3241 5.35875V7.19875L60.9968 7.86L60.3241 8.5155V10.5855L61.2901 11.5457ZM61.6581 7.492L61.0658 6.88825V5.71525L61.6466 5.1345H63.4636L64.0501 5.71525V6.88825L63.4521 7.492H61.6581ZM61.8478 10.3727H63.2508L63.6016 10.022V9.033L63.2508 8.68225H61.8478L61.4971 9.033V10.022L61.8478 10.3727ZM61.8536 7.055H63.2451L63.6016 6.6755V5.928L63.2508 5.57725H61.8478L61.4971 5.928V6.6755L61.8536 7.055ZM67.2705 12L66.086 10.8155V5.1345L67.2705 3.95H70.5078L71.6923 5.1345V10.8155L70.5078 12H67.2705ZM68.294 10.3727H69.8293L70.18 10.022V7.1815L68.294 10.3727ZM67.88 10.804L67.7133 10.5625L70.364 5.93375L70.5825 6.0775V10.2232L69.996 10.804H67.88ZM67.4603 11.54H70.3008L71.261 10.5797V5.3415L70.3008 4.38125H67.4603L66.5 5.3415V10.5797L67.4603 11.54ZM67.1843 9.792V5.698L67.765 5.123H69.8465L70.0018 5.35875L67.3913 9.93L67.1843 9.792ZM67.5983 8.642L69.4095 5.57725H67.9548L67.5983 5.928V8.642ZM73.7393 12L72.5548 10.8155V8.36025L73.0723 7.86575L72.5548 7.354V5.1345L73.7393 3.95H76.7178L77.9023 5.1345V7.354L77.3848 7.87725L77.9023 8.36025V10.8155L76.7178 12H73.7393ZM74.3258 10.8097L73.745 10.229V8.82025L74.3373 8.23375H76.1313L76.7293 8.82025V10.229L76.1428 10.8097H74.3258ZM73.9693 11.5457H76.505L77.4653 10.5855V8.5155L76.7983 7.86575L77.4653 7.19875V5.35875L76.505 4.3985H73.9693L73.0033 5.35875V7.19875L73.676 7.86L73.0033 8.5155V10.5855L73.9693 11.5457ZM74.3373 7.492L73.745 6.88825V5.71525L74.3258 5.1345H76.1428L76.7293 5.71525V6.88825L76.1313 7.492H74.3373ZM74.527 10.3727H75.93L76.2808 10.022V9.033L75.93 8.68225H74.527L74.1763 9.033V10.022L74.527 10.3727ZM74.5328 7.055H75.9243L76.2808 6.6755V5.928L75.93 5.57725H74.527L74.1763 5.928V6.6755L74.5328 7.055ZM82.9397 3.95L84.1242 5.1345V10.8155L82.9397 12H79.9842L78.794 10.8155V9.59075H80.4212V10.022L80.772 10.3727H82.152L82.5027 10.022V9.2285L82.3302 9.401H79.9497L78.7652 8.2165V5.1345L79.9497 3.95H82.9397ZM82.336 5.14025L82.9455 5.73825V7.423L82.129 8.22225H80.5305L79.9382 7.6415V5.721L80.5305 5.14025H82.336ZM82.152 5.57725H80.7375L80.3867 5.928V7.423L80.7375 7.77375H82.037L82.5027 7.31375V5.928L82.152 5.57725ZM82.6982 4.3985H80.1682L79.2022 5.3645V7.998L80.1682 8.964H82.244L82.9455 8.26825V10.252L82.3532 10.827H80.565L79.9842 10.252V9.93H79.2425V10.6085L80.2085 11.5687H82.7155L83.6815 10.6085V5.38175L82.6982 4.3985Z" fill="url(#paint0_linear_11_18)" style=""/>
<defs>
<linearGradient id="paint0_linear_11_18" x1="72" y1="1" x2="78.5" y2="14" gradientUnits="userSpaceOnUse">
<stop stop-color="#F26B6B" style="stop-color:#F26B6B;stop-color:color(display-p3 0.9500 0.4196 0.4196);stop-opacity:1;"/>
<stop offset="0.16715" stop-color="#E8333C" style="stop-color:#E8333C;stop-color:color(display-p3 0.9090 0.2003 0.2349);stop-opacity:1;"/>
<stop offset="1" stop-color="#CE1E53" style="stop-color:#CE1E53;stop-color:color(display-p3 0.8083 0.1179 0.3250);stop-opacity:1;"/>
</linearGradient>
</defs>
</svg>
