<svg width="85" height="14" viewBox="0 0 85 14" fill="none" xmlns="http://www.w3.org/2000/svg">
<path d="M1.34867 4.2H6.14867L7.39667 5.52V7.92L6.18467 9.192L7.30067 11.04H7.93667V12H5.80067V11.04H6.13667L5.05667 9.24H3.29267V11.04H4.01267V12H1.34867V11.04H2.18867V5.16H1.34867V4.2ZM3.29267 5.232V8.208H5.66867L6.36467 7.5V5.94L5.68067 5.232H3.29267ZM10.9873 12L9.7393 10.68V5.52L10.9873 4.2H14.3713L15.6193 5.52V10.68L14.3713 12H10.9873ZM11.4553 10.968H13.8913L14.5153 10.332V5.868L13.9033 5.232H11.4673L10.8433 5.868V10.332L11.4553 10.968ZM22.104 9.168H23.064V10.68L21.816 12H18.792L17.544 10.68V5.52L18.792 4.2H21.816L23.064 5.52V7.032H22.104V6.012L21.348 5.232H19.272L18.648 5.868V10.332L19.26 10.968H21.336L22.104 10.188V9.168ZM31.5673 12H29.0233V11.04H29.6353L27.8713 8.58H26.6833V11.04H27.5233V12H24.7393V11.04H25.5793V5.16H24.7393V4.2H27.5233V5.16H26.6833V7.62H27.7393L29.5153 5.16H28.9033V4.2H31.4473V5.16H30.7513L28.6993 8.016L30.8713 11.04H31.5673V12ZM32.0466 5.16V4.2H34.5906V5.16H33.7506L35.4426 10.86L37.1466 5.16H36.6666V4.2H39.2586V5.16H38.7786L40.4706 10.86L42.1746 5.16H41.3346V4.2H43.8786V5.16H43.2786L41.2386 12H39.7626L37.9626 5.964L36.1626 12H34.6866L32.6466 5.16H32.0466ZM48.4393 12V11.04H49.2313L48.7153 9.552H45.7153L45.1993 11.04H46.0033V12H43.4593V11.04H44.0953L46.1233 5.16H45.6193V4.2H48.8233V5.16H48.3073L50.3353 11.04H50.9833V12H48.4393ZM47.2153 5.196L46.0393 8.592H48.3913L47.2153 5.196ZM55.6023 12H52.3383V11.04H53.4183V9.552L51.3303 5.16H50.5623V4.2H53.1063V5.16H52.3863L53.9583 8.484L55.5423 5.16H54.8223V4.2H57.3663V5.16H56.5983L54.5223 9.528V11.04H55.6023V12Z" fill="black" style="fill:black;fill-opacity:1;"/>
<path d="M61.0601 12L59.8756 10.8155V8.36025L60.3931 7.86575L59.8756 7.354V5.1345L61.0601 3.95H64.0386L65.2231 5.1345V7.354L64.7056 7.87725L65.2231 8.36025V10.8155L64.0386 12H61.0601ZM61.4511 11.1835L60.7036 10.4245V8.6305L61.4741 7.86H63.6418L64.4123 8.6305V10.4245L63.6706 11.1835H61.4511ZM61.4511 11.1835H63.6706L64.4123 10.4245V8.6305L63.6418 7.86L64.4123 7.0895V5.51975L63.6706 4.76075H61.4511L60.7036 5.51975V7.0895L61.4741 7.86L60.7036 8.6305V10.4245L61.4511 11.1835ZM61.4741 7.86L60.7036 7.0895V5.51975L61.4511 4.76075H63.6706L64.4123 5.51975V7.0895L63.6418 7.86H61.4741ZM61.8478 10.3727H63.2508L63.6016 10.022V9.033L63.2508 8.68225H61.8478L61.4971 9.033V10.022L61.8478 10.3727ZM61.8536 7.055H63.2451L63.6016 6.6755V5.928L63.2508 5.57725H61.8478L61.4971 5.928V6.6755L61.8536 7.055ZM67.2705 12L66.086 10.8155V5.1345L67.2705 3.95H70.5078L71.6923 5.1345V10.8155L70.5078 12H67.2705ZM68.294 10.3727H69.8293L70.18 10.022V7.1815L68.294 10.3727ZM67.6098 11.172L67.19 10.7637L70.5308 5.1115L70.916 5.51975V10.3842L70.1283 11.172H67.6098ZM67.6098 11.172H70.1283L70.916 10.3842V5.51975L70.1283 4.74925H67.6098L66.822 5.51975V10.3842L67.6098 11.172ZM66.822 10.3842V5.51975L67.6098 4.74925H70.1283L70.5308 5.1115L67.19 10.7637L66.822 10.3842ZM67.5983 8.642L69.4095 5.57725H67.9548L67.5983 5.928V8.642ZM73.7393 12L72.5548 10.8155V8.36025L73.0723 7.86575L72.5548 7.354V5.1345L73.7393 3.95H76.7178L77.9023 5.1345V7.354L77.3848 7.87725L77.9023 8.36025V10.8155L76.7178 12H73.7393ZM74.1303 11.1835L73.3828 10.4245V8.6305L74.1533 7.86H76.321L77.0915 8.6305V10.4245L76.3498 11.1835H74.1303ZM74.1303 11.1835H76.3498L77.0915 10.4245V8.6305L76.321 7.86L77.0915 7.0895V5.51975L76.3498 4.76075H74.1303L73.3828 5.51975V7.0895L74.1533 7.86L73.3828 8.6305V10.4245L74.1303 11.1835ZM74.1533 7.86L73.3828 7.0895V5.51975L74.1303 4.76075H76.3498L77.0915 5.51975V7.0895L76.321 7.86H74.1533ZM74.527 10.3727H75.93L76.2808 10.022V9.033L75.93 8.68225H74.527L74.1763 9.033V10.022L74.527 10.3727ZM74.5328 7.055H75.9243L76.2808 6.6755V5.928L75.93 5.57725H74.527L74.1763 5.928V6.6755L74.5328 7.055ZM82.9397 3.95L84.1242 5.1345V10.8155L82.9397 12H79.9842L78.794 10.8155V9.59075H80.4212V10.022L80.772 10.3727H82.152L82.5027 10.022V9.2285L82.3302 9.401H79.9497L78.7652 8.2165V5.1345L79.9497 3.95H82.9397ZM82.4855 4.7665L83.3077 5.58875V7.5035L82.1922 8.596H80.3752L79.5702 7.80825V5.55425L80.381 4.7665H82.4855ZM82.152 5.57725H80.7375L80.3867 5.928V7.423L80.7375 7.77375H82.037L82.5027 7.31375V5.928L82.152 5.57725ZM82.4855 4.7665H80.381L79.5702 5.55425V7.80825L80.3752 8.596H82.1922L83.3077 7.5035V10.4187L82.5372 11.1892H80.3925L79.622 10.4187V10.1715V10.4187L80.3925 11.1892H82.5372L83.3077 10.4187V5.58875L82.4855 4.7665Z" fill="url(#paint0_linear_11_17)" style=""/>
<defs>
<linearGradient id="paint0_linear_11_17" x1="72" y1="1" x2="78.5" y2="14" gradientUnits="userSpaceOnUse">
<stop stop-color="#F26B6B" style="stop-color:#F26B6B;stop-color:color(display-p3 0.9500 0.4196 0.4196);stop-opacity:1;"/>
<stop offset="0.16715" stop-color="#E8333C" style="stop-color:#E8333C;stop-color:color(display-p3 0.9090 0.2003 0.2349);stop-opacity:1;"/>
<stop offset="1" stop-color="#CE1E53" style="stop-color:#CE1E53;stop-color:color(display-p3 0.8083 0.1179 0.3250);stop-opacity:1;"/>
</linearGradient>
</defs>
</svg>
